<mxfile host="drawio-plugin" modified="2024-05-17T02:59:43.719Z" agent="5.0 (Windows NT 10.0; Win64; x64) AppleWebKit/537.36 (KHTML, like Gecko) Chrome/111.0.0.0 Safari/537.36" version="20.5.3" etag="Om6RyXo2gfv_zOom70fV" type="embed"><diagram id="ih6cK4Xar2P0bWwmQMkE" name="Page-1"><mxGraphModel dx="1361" dy="498" grid="1" gridSize="10" guides="1" tooltips="1" connect="1" arrows="1" fold="1" page="1" pageScale="1" pageWidth="850" pageHeight="1100" math="0" shadow="0"><root><mxCell id="0"/><mxCell id="1" parent="0"/><mxCell id="2" value="Advertisement" style="swimlane;fontStyle=0;childLayout=stackLayout;horizontal=1;startSize=26;fillColor=none;horizontalStack=0;resizeParent=1;resizeParentMax=0;resizeLast=0;collapsible=1;marginBottom=0;html=1;" vertex="1" parent="1"><mxGeometry x="200" y="200" width="140" height="182" as="geometry"/></mxCell><mxCell id="3" value="&lt;u&gt;AdID&lt;/u&gt;" style="text;strokeColor=none;fillColor=none;align=left;verticalAlign=top;spacingLeft=4;spacingRight=4;overflow=hidden;rotatable=0;points=[[0,0.5],[1,0.5]];portConstraint=eastwest;whiteSpace=wrap;html=1;" vertex="1" parent="2"><mxGeometry y="26" width="140" height="26" as="geometry"/></mxCell><mxCell id="4" value="AdContent" style="text;strokeColor=none;fillColor=none;align=left;verticalAlign=top;spacingLeft=4;spacingRight=4;overflow=hidden;rotatable=0;points=[[0,0.5],[1,0.5]];portConstraint=eastwest;whiteSpace=wrap;html=1;" vertex="1" parent="2"><mxGeometry y="52" width="140" height="26" as="geometry"/></mxCell><mxCell id="5" value="AdURL" style="text;strokeColor=none;fillColor=none;align=left;verticalAlign=top;spacingLeft=4;spacingRight=4;overflow=hidden;rotatable=0;points=[[0,0.5],[1,0.5]];portConstraint=eastwest;whiteSpace=wrap;html=1;" vertex="1" parent="2"><mxGeometry y="78" width="140" height="26" as="geometry"/></mxCell><mxCell id="8" value="AdType" style="text;strokeColor=none;fillColor=none;align=left;verticalAlign=top;spacingLeft=4;spacingRight=4;overflow=hidden;rotatable=0;points=[[0,0.5],[1,0.5]];portConstraint=eastwest;whiteSpace=wrap;html=1;" vertex="1" parent="2"><mxGeometry y="104" width="140" height="26" as="geometry"/></mxCell><mxCell id="7" value="AdStartDate" style="text;strokeColor=none;fillColor=none;align=left;verticalAlign=top;spacingLeft=4;spacingRight=4;overflow=hidden;rotatable=0;points=[[0,0.5],[1,0.5]];portConstraint=eastwest;whiteSpace=wrap;html=1;" vertex="1" parent="2"><mxGeometry y="130" width="140" height="26" as="geometry"/></mxCell><mxCell id="6" value="AdEndDate" style="text;strokeColor=none;fillColor=none;align=left;verticalAlign=top;spacingLeft=4;spacingRight=4;overflow=hidden;rotatable=0;points=[[0,0.5],[1,0.5]];portConstraint=eastwest;whiteSpace=wrap;html=1;" vertex="1" parent="2"><mxGeometry y="156" width="140" height="26" as="geometry"/></mxCell><mxCell id="17" style="edgeStyle=orthogonalEdgeStyle;rounded=0;orthogonalLoop=1;jettySize=auto;html=1;exitX=0;exitY=0.5;exitDx=0;exitDy=0;entryX=1;entryY=0.5;entryDx=0;entryDy=0;" edge="1" parent="1" source="9" target="8"><mxGeometry relative="1" as="geometry"/></mxCell><mxCell id="18" style="edgeStyle=orthogonalEdgeStyle;rounded=0;orthogonalLoop=1;jettySize=auto;html=1;exitX=1;exitY=0.5;exitDx=0;exitDy=0;entryX=0.533;entryY=0.987;entryDx=0;entryDy=0;entryPerimeter=0;" edge="1" parent="1" source="9" target="14"><mxGeometry relative="1" as="geometry"><Array as="points"><mxPoint x="580" y="317"/><mxPoint x="580" y="252"/></Array></mxGeometry></mxCell><mxCell id="9" value="ShowAd" style="rhombus;whiteSpace=wrap;html=1;" vertex="1" parent="1"><mxGeometry x="390" y="287" width="100" height="60" as="geometry"/></mxCell><mxCell id="10" value="" style="endArrow=none;dashed=1;html=1;rounded=0;exitX=0.5;exitY=1;exitDx=0;exitDy=0;entryX=0.5;entryY=0;entryDx=0;entryDy=0;" edge="1" parent="1" source="9" target="11"><mxGeometry width="50" height="50" relative="1" as="geometry"><mxPoint x="290" y="480" as="sourcePoint"/><mxPoint x="340" y="430" as="targetPoint"/><Array as="points"/></mxGeometry></mxCell><mxCell id="11" value="&lt;u&gt;TimeStamp&lt;/u&gt;" style="rounded=0;whiteSpace=wrap;html=1;" vertex="1" parent="1"><mxGeometry x="400" y="370" width="80" height="30" as="geometry"/></mxCell><mxCell id="13" value="User" style="swimlane;fontStyle=0;childLayout=stackLayout;horizontal=1;startSize=26;fillColor=none;horizontalStack=0;resizeParent=1;resizeParentMax=0;resizeLast=0;collapsible=1;marginBottom=0;html=1;" vertex="1" parent="1"><mxGeometry x="510" y="200" width="140" height="52" as="geometry"/></mxCell><mxCell id="14" value="&lt;u&gt;UserID&lt;/u&gt;" style="text;strokeColor=none;fillColor=none;align=left;verticalAlign=top;spacingLeft=4;spacingRight=4;overflow=hidden;rotatable=0;points=[[0,0.5],[1,0.5]];portConstraint=eastwest;whiteSpace=wrap;html=1;" vertex="1" parent="13"><mxGeometry y="26" width="140" height="26" as="geometry"/></mxCell><mxCell id="22" style="edgeStyle=orthogonalEdgeStyle;rounded=0;orthogonalLoop=1;jettySize=auto;html=1;exitX=0;exitY=0.5;exitDx=0;exitDy=0;entryX=1;entryY=0.5;entryDx=0;entryDy=0;" edge="1" parent="1" source="19" target="3"><mxGeometry relative="1" as="geometry"/></mxCell><mxCell id="23" style="edgeStyle=orthogonalEdgeStyle;rounded=0;orthogonalLoop=1;jettySize=auto;html=1;exitX=1;exitY=0.5;exitDx=0;exitDy=0;entryX=0;entryY=0.5;entryDx=0;entryDy=0;" edge="1" parent="1" source="19" target="14"><mxGeometry relative="1" as="geometry"/></mxCell><mxCell id="19" value="ClickAd" style="rhombus;whiteSpace=wrap;html=1;" vertex="1" parent="1"><mxGeometry x="390" y="214" width="80" height="50" as="geometry"/></mxCell><mxCell id="20" value="TimeStamp&lt;br&gt;IPAddress" style="rounded=0;whiteSpace=wrap;html=1;" vertex="1" parent="1"><mxGeometry x="370" y="110" width="120" height="60" as="geometry"/></mxCell><mxCell id="21" value="" style="endArrow=none;dashed=1;html=1;rounded=0;entryX=0.5;entryY=1;entryDx=0;entryDy=0;exitX=0.5;exitY=0;exitDx=0;exitDy=0;" edge="1" parent="1" source="19" target="20"><mxGeometry width="50" height="50" relative="1" as="geometry"><mxPoint x="330" y="260" as="sourcePoint"/><mxPoint x="380" y="210" as="targetPoint"/></mxGeometry></mxCell><mxCell id="25" style="edgeStyle=orthogonalEdgeStyle;rounded=0;orthogonalLoop=1;jettySize=auto;html=1;exitX=1;exitY=0.5;exitDx=0;exitDy=0;entryX=0;entryY=0.5;entryDx=0;entryDy=0;" edge="1" parent="1" source="24" target="3"><mxGeometry relative="1" as="geometry"/></mxCell><mxCell id="32" style="edgeStyle=orthogonalEdgeStyle;rounded=0;orthogonalLoop=1;jettySize=auto;html=1;exitX=0;exitY=0.5;exitDx=0;exitDy=0;entryX=1;entryY=0.5;entryDx=0;entryDy=0;" edge="1" parent="1" source="24" target="29"><mxGeometry relative="1" as="geometry"/></mxCell><mxCell id="24" value="AdminEdit" style="rhombus;whiteSpace=wrap;html=1;" vertex="1" parent="1"><mxGeometry x="50" y="212.5" width="90" height="53" as="geometry"/></mxCell><mxCell id="26" value="TimeStamp&lt;br&gt;EditType" style="rounded=0;whiteSpace=wrap;html=1;" vertex="1" parent="1"><mxGeometry x="45" y="130" width="100" height="40" as="geometry"/></mxCell><mxCell id="27" value="" style="endArrow=none;dashed=1;html=1;rounded=0;entryX=0.5;entryY=1;entryDx=0;entryDy=0;exitX=0.5;exitY=0;exitDx=0;exitDy=0;" edge="1" parent="1" source="24" target="26"><mxGeometry width="50" height="50" relative="1" as="geometry"><mxPoint x="10" y="220" as="sourcePoint"/><mxPoint x="60" y="170" as="targetPoint"/></mxGeometry></mxCell><mxCell id="28" value="Admin" style="swimlane;fontStyle=0;childLayout=stackLayout;horizontal=1;startSize=26;fillColor=none;horizontalStack=0;resizeParent=1;resizeParentMax=0;resizeLast=0;collapsible=1;marginBottom=0;html=1;" vertex="1" parent="1"><mxGeometry x="-160" y="200" width="140" height="52" as="geometry"/></mxCell><mxCell id="29" value="AdminID" style="text;strokeColor=none;fillColor=none;align=left;verticalAlign=top;spacingLeft=4;spacingRight=4;overflow=hidden;rotatable=0;points=[[0,0.5],[1,0.5]];portConstraint=eastwest;whiteSpace=wrap;html=1;" vertex="1" parent="28"><mxGeometry y="26" width="140" height="26" as="geometry"/></mxCell></root></mxGraphModel></diagram></mxfile>